<svg xmlns="http://www.w3.org/2000/svg" viewBox="0 0 512 512"><defs><style>.a{fill:#ed5338}.b{fill:#40474f}</style></defs><path class="a" d="M83.59 376.77v16.71q0 6-2.36 9.22t-7.17 3.18q-4.73 0-7.09-3.18t-2.36-9.22v-16.71h4.65v17.33a15.07 15.07 0 0 0 .23 2.63 8 8 0 0 0 .81 2.4 5.33 5.33 0 0 0 1.51 1.78 3.63 3.63 0 0 0 2.25.7 3.92 3.92 0 0 0 2.32-.66 4.94 4.94 0 0 0 1.51-1.74 8 8 0 0 0 .81-2.44 15.73 15.73 0 0 0 .23-2.67v-17.33ZM57.17 404.62q0 6-2.36 9.26t-7.17 3.22H38v-51.54h9.61q4.81 0 7.17 3.22t2.39 9.22Zm-4.65-27.36a13.42 13.42 0 0 0-.27-2.71 8.28 8.28 0 0 0-.85-2.36 4.73 4.73 0 0 0-1.51-1.67 4.1 4.1 0 0 0-2.32-.62h-4.9v42.94h4.88a4 4 0 0 0 2.29-.66 4.92 4.92 0 0 0 1.55-1.7 8.27 8.27 0 0 0 .85-2.4 14.39 14.39 0 0 0 .27-2.83ZM137.15 420.3q0 14.44-5.57 21.93t-16.91 7.49h-10.6v50.45h-11V378.63h21.57q11.33 0 16.91 7.59t5.57 21.84Zm-11-13.71a34 34 0 0 0-.64-6.67 18.1 18.1 0 0 0-2.1-5.67 12 12 0 0 0-3.66-3.93 9.68 9.68 0 0 0-5.48-1.46h-10.2v50.81h10.23q6.58 0 9.23-5.48a28.7 28.7 0 0 0 2.65-12.61ZM251.57 412.44q0 10.05-3.29 17a21.14 21.14 0 0 1-9.14 10.05L256 500.17h-11.7l-14.48-57.57h-12.06v57.57h-11V378.63h22.3q11.33 0 16.91 7.59t5.57 21.84Zm-11-5.85a34 34 0 0 0-.64-6.67 18 18 0 0 0-2.1-5.67 11.64 11.64 0 0 0-3.75-3.93 10.13 10.13 0 0 0-5.57-1.46h-10.75v43.68h10.6q6.76 0 9.51-5.21a27.44 27.44 0 0 0 2.74-12.88ZM301.64 409.52v-4.75a38.65 38.65 0 0 0-.55-6.49 18.94 18.94 0 0 0-1.92-5.76 11.73 11.73 0 0 0-3.56-4.11 8.93 8.93 0 0 0-5.3-1.55 8.57 8.57 0 0 0-5.3 1.64 12.59 12.59 0 0 0-3.56 4.2 18.82 18.82 0 0 0-1.92 5.76 37.16 37.16 0 0 0-.55 6.31V474a37.1 37.1 0 0 0 .55 6.31 18.77 18.77 0 0 0 1.92 5.76 12.58 12.58 0 0 0 3.56 4.2 8.57 8.57 0 0 0 5.3 1.65 8.92 8.92 0 0 0 5.3-1.56 11.66 11.66 0 0 0 3.56-4.11 18.92 18.92 0 0 0 1.92-5.76 38.66 38.66 0 0 0 .55-6.49v-4.75h11v1.65q0 31.07-22.3 31.07-11.33 0-16.81-7.59T268 472.57v-66.34q0-14.26 5.48-21.84t16.81-7.58q22.3 0 22.3 30.52v2.19ZM363.24 474.56V441.9h-24.68v32.66h-11v-70.32h11v27.6h24.67v-27.6h11v70.31ZM432.32 414.48h-27.78v17h23.21v10.05h-23.21v23h27.78v10.05h-38.75v-70.34h38.75ZM192.89 414.48h-27.78v17h23.21v10.05h-23.21v23h27.78v10.05h-38.74v-70.34h38.75Z"/><path class="b" d="M82.09 175.37v47.56h12.48v4.29H77.41v-51.85ZM114.57 190.5h-11.85v6.93h9.9v4.29h-9.9v10.46h11.85v4.29H98v-30.34h16.53ZM120.69 186a15.54 15.54 0 0 1 .54-4.06 12.3 12.3 0 0 1 1.64-3.66 9.07 9.07 0 0 1 14-.74q2.42 2.92 2.42 9.32v1.64h-4.68v-1.95a19.66 19.66 0 0 0-.19-2.77 8.07 8.07 0 0 0-.74-2.46 5 5 0 0 0-1.4-1.75 3.6 3.6 0 0 0-2.26-.66 3.69 3.69 0 0 0-3.35 2 9.29 9.29 0 0 0-1.17 4.8v2.5a9.64 9.64 0 0 0 1.13 4.72 15.36 15.36 0 0 0 3.94 4.33q1.71 1.4 3.31 3a21.5 21.5 0 0 1 2.81 3.35 15.86 15.86 0 0 1 1.91 3.94 15.37 15.37 0 0 1 .7 4.8v4.37a15.82 15.82 0 0 1-.55 4.13 11.8 11.8 0 0 1-1.64 3.63A8.32 8.32 0 0 1 130 228q-4.76 0-7-3.24t-2.26-9.08v-1.56h4.76v1.95a19.38 19.38 0 0 0 .2 2.77 8.69 8.69 0 0 0 .7 2.46 4.59 4.59 0 0 0 1.37 1.75 3.59 3.59 0 0 0 2.26.66 3.76 3.76 0 0 0 3.43-2 9.31 9.31 0 0 0 1.17-4.8v-3.66a12.16 12.16 0 0 0-1.68-6.43 21.62 21.62 0 0 0-4.64-5.26q-1.71-1.4-3.12-2.73a15.79 15.79 0 0 1-2.38-2.81 12.65 12.65 0 0 1-1.52-3.24 13.22 13.22 0 0 1-.54-3.94ZM131.37 307.58q0 14.57-5.6 22.32t-17.19 7.75q-11.59 0-17.09-7.75T86 307.58v-22.25q0-14.58 5.61-22.33t17-7.75q11.59 0 17.19 7.75t5.6 22.33Zm-11.21-23.75a39.51 39.51 0 0 0-.56-6.63 19.36 19.36 0 0 0-2-5.89 12.45 12.45 0 0 0-3.55-4.2 10.36 10.36 0 0 0-11 0 11.54 11.54 0 0 0-3.46 4.2 21.1 21.1 0 0 0-1.87 5.89 39 39 0 0 0-.56 6.63v25.05a39 39 0 0 0 .56 6.63 21 21 0 0 0 1.87 5.89 12.38 12.38 0 0 0 3.46 4.3 8.66 8.66 0 0 0 5.51 1.68 9 9 0 0 0 5.51-1.59 12.17 12.17 0 0 0 3.55-4.3 20.51 20.51 0 0 0 2-6 39.49 39.49 0 0 0 .56-6.63ZM69.36 277.39q0 14.76-5.7 22.42t-17.28 7.66H35.56V359H24.35V234.8h22q11.58 0 17.28 7.75t5.7 22.32Zm-11.21-14a34.7 34.7 0 0 0-.66-6.82 18.38 18.38 0 0 0-2.15-5.79 12.24 12.24 0 0 0-3.73-4 9.92 9.92 0 0 0-5.61-1.5H35.56v51.93H46q6.72 0 9.43-5.61a29.27 29.27 0 0 0 2.71-12.89ZM194.41 328.95q0 14.57-5.7 22.32T171.44 359h-23.17V234.8h23.16q11.58 0 17.27 7.75t5.7 22.32ZM183.21 263a32.69 32.69 0 0 0-.66-6.54 20.1 20.1 0 0 0-2.05-5.7 11.4 11.4 0 0 0-3.64-4 9.89 9.89 0 0 0-5.6-1.5h-11.78v103.49h11.77a9.57 9.57 0 0 0 5.51-1.59 11.9 11.9 0 0 0 3.74-4.11 20.06 20.06 0 0 0 2.05-5.79 35 35 0 0 0 .66-6.82ZM245.59 288.55v-4.86a39.5 39.5 0 0 0-.56-6.63 19.22 19.22 0 0 0-2-5.88 12 12 0 0 0-3.64-4.2 9.15 9.15 0 0 0-5.42-1.59 8.74 8.74 0 0 0-5.41 1.68 12.88 12.88 0 0 0-3.65 4.3 19.36 19.36 0 0 0-2 5.88 38 38 0 0 0-.56 6.44v25.18a37.91 37.91 0 0 0 .56 6.44 19.31 19.31 0 0 0 2 5.88 12.87 12.87 0 0 0 3.65 4.3 8.74 8.74 0 0 0 5.41 1.68 9.13 9.13 0 0 0 5.42-1.59 12 12 0 0 0 3.64-4.2 19.2 19.2 0 0 0 2-5.88 39.51 39.51 0 0 0 .56-6.63V304h11.21v1.68q0 31.76-22.79 31.76-11.58 0-17.18-7.75t-5.61-22.32v-22.2q0-14.57 5.61-22.32t17.17-7.74q22.79 0 22.79 31.2v2.24ZM266 353.23 287.24 229h13.46L326 372.29h-11.56l-9.07-49.7h-23.54L277 353.23Zm17.18-40.72h20.92l-10.27-66.13h-.56ZM331.52 260.2a37.23 37.23 0 0 1 1.31-9.72 29.46 29.46 0 0 1 3.92-8.78 19.39 19.39 0 0 1 17-8.78q10.65 0 16.43 7t5.82 22.34v3.92h-11.23v-4.67a47.11 47.11 0 0 0-.46-6.63 19.2 19.2 0 0 0-1.78-5.88 12 12 0 0 0-3.36-4.2 8.63 8.63 0 0 0-5.42-1.59 8.83 8.83 0 0 0-8 4.76 22.25 22.25 0 0 0-2.8 11.49v6a23.1 23.1 0 0 0 2.71 11.3q2.7 5 9.43 10.37 4.1 3.36 7.94 7.1a51.47 51.47 0 0 1 6.72 8 38 38 0 0 1 4.58 9.43 26.72 26.72 0 0 1 1.68 9.8v10.46a38.1 38.1 0 0 1-1.3 9.9 28.38 28.38 0 0 1-3.92 8.69 19.93 19.93 0 0 1-17 8.69q-11.4 0-16.81-7.75t-5.42-21.76v-3.74h11.39v4.67a46.42 46.42 0 0 0 .47 6.63 20.82 20.82 0 0 0 1.68 5.88 11.09 11.09 0 0 0 3.27 4.2 8.62 8.62 0 0 0 5.42 1.59 9 9 0 0 0 8.22-4.76 22.3 22.3 0 0 0 2.8-11.49v-8.78c0-5.85-1.34-9.3-4-13.72a51.92 51.92 0 0 0-11.12-12.61q-4.11-3.36-7.47-6.54a37.66 37.66 0 0 1-5.7-6.72 30.15 30.15 0 0 1-3.64-7.75 31.67 31.67 0 0 1-1.31-9.43ZM403.62 337.66v-82.58h-19.8v-10.46h51.37v10.46h-20.36v82.58ZM443 260.2a37.23 37.23 0 0 1 1.31-9.72 29.46 29.46 0 0 1 3.92-8.78 19.39 19.39 0 0 1 17-8.78q10.65 0 16.43 7t5.79 22.32v3.92h-11.17v-4.67a47.11 47.11 0 0 0-.46-6.63A19.2 19.2 0 0 0 474 249a12 12 0 0 0-3.36-4.2 8.63 8.63 0 0 0-5.42-1.59 8.83 8.83 0 0 0-8 4.76 22.25 22.25 0 0 0-2.8 11.49v6a23.1 23.1 0 0 0 2.71 11.3q2.7 5 9.43 10.37 4.1 3.36 7.94 7.1a51.47 51.47 0 0 1 6.72 8 38 38 0 0 1 4.58 9.43 26.72 26.72 0 0 1 1.68 9.8v10.46a38.1 38.1 0 0 1-1.3 9.9 28.38 28.38 0 0 1-3.92 8.69 19.93 19.93 0 0 1-17 8.69q-11.4 0-16.81-7.75T443 329.68v-3.74h11.39v4.67a46.42 46.42 0 0 0 .47 6.63 20.82 20.82 0 0 0 1.68 5.88 11.09 11.09 0 0 0 3.27 4.2 8.62 8.62 0 0 0 5.42 1.59 9 9 0 0 0 8.22-4.76 22.3 22.3 0 0 0 2.8-11.49v-8.78c0-5.85-1.34-9.3-4-13.72a51.92 51.92 0 0 0-11.12-12.61q-4.13-3.35-7.45-6.55a37.66 37.66 0 0 1-5.7-6.72 30.15 30.15 0 0 1-3.64-7.75 31.67 31.67 0 0 1-1.31-9.43ZM300.9 80.08h-6.68v-1.26a3 3 0 1 0-6 0v19.65h-8.38V54.16a44.16 44.16 0 0 0-88.33 0v44.32h-8.38V78.82a3 3 0 1 0-6 0v1.26h-8.46a.75.75 0 0 0-.75.75v37.73a.75.75 0 0 0 .75.75h8.88c1.11 12.34 4.92 32.6 17.68 47.22 9.44 10.82 22.11 16.58 37.67 17.14v32.95h-15.31v5.55h36.18v-5.55h-15.32v-32.95c15.56-.56 28.23-6.31 37.67-17.14 12.77-14.64 16.58-34.92 17.68-47.22h7.1a.75.75 0 0 0 .75-.75V80.83a.75.75 0 0 0-.75-.75ZM197.07 54.16a38.61 38.61 0 0 1 77.22 0v69.94a38.61 38.61 0 1 1-77.22 0Zm74.73 107.78C263 172 250.95 177.1 235.91 177.1h-.46c-15 0-27.09-5.09-35.86-15.14-17.38-19.89-16.46-53-16.45-53.41v-3.35h8.38v18.9a44.16 44.16 0 1 0 88.33 0v-18.91h8.38v3.48c0 .33.97 33.33-16.43 53.27Z"/><path class="a" d="M239.43 64.15a5.74 5.74 0 0 0-6.74-.06L203 85.24a2 2 0 0 0-.82 1.59v8.07l29.62-21.07a7.13 7.13 0 0 1 8.39 0L269 95.18V87a2 2 0 0 0-.79-1.57Z"/><path class="a" d="M239.41 37.45a5.72 5.72 0 0 0-6.71 0L203 58.73a2 2 0 0 0-.82 1.59v8.09l29.62-21.25a7.13 7.13 0 0 1 8.39 0L269 68.27V60.1a2 2 0 0 0-.8-1.58ZM239.46 91.66a5.81 5.81 0 0 0-6.83 0L203 113a2 2 0 0 0-.85 1.66v8.06l29.65-21.4a7.13 7.13 0 0 1 8.39 0L269 122.45v-8.13a2 2 0 0 0-.84-1.65Z"/></svg>