<svg xmlns="http://www.w3.org/2000/svg" viewBox="0 0 32 32"><defs><style>.b{fill:#ed5338}</style></defs><path d="M25 10.91h-.93v-.18a.42.42 0 1 0-.83 0v2.73h-1.18V7.31a6.14 6.14 0 0 0-12.28 0v6.16H8.61v-2.73a.42.42 0 1 0-.83 0v.18H6.6a.1.1 0 0 0-.1.1v5.25a.1.1 0 0 0 .1.1h1.24a11.82 11.82 0 0 0 2.46 6.57 7 7 0 0 0 5.24 2.38v4.58h-2.13v.77h5v-.77h-2.1v-4.59a7 7 0 0 0 5.24-2.38A11.83 11.83 0 0 0 24 16.37h1a.1.1 0 0 0 .1-.1V11a.1.1 0 0 0-.1-.09Zm-14.45-3.6a5.37 5.37 0 0 1 10.74 0V17a5.37 5.37 0 1 1-10.74 0Zm10.39 15a6.31 6.31 0 0 1-5 2.11h-.07a6.31 6.31 0 0 1-5-2.1c-2.42-2.77-2.29-7.36-2.29-7.43v-.49h1.2V17a6.14 6.14 0 1 0 12.28 0v-2.6h1.17v.48s.13 4.64-2.29 7.41Z" style="fill:#40474f"/><path class="b" d="M16.44 8.7a.8.8 0 0 0-.94 0l-4.13 2.94a.27.27 0 0 0-.11.22V13l4.12-3a1 1 0 0 1 1.17 0l4 3v-1.13a.27.27 0 0 0-.11-.22Z"/><path class="b" d="M16.44 5a.8.8 0 0 0-.93 0l-4.13 3a.27.27 0 0 0-.11.22v1.07l4.12-3a1 1 0 0 1 1.17 0l4 2.93V8.13a.27.27 0 0 0-.11-.22ZM16.45 12.52a.81.81 0 0 0-1 0l-4.12 3a.28.28 0 0 0-.12.23v1.12l4.12-3a1 1 0 0 1 1.17 0l4 2.93v-1.13a.28.28 0 0 0-.12-.23Z"/></svg>