<svg version="1.1" id="Calque_1" xmlns="http://www.w3.org/2000/svg" x="0" y="0" viewBox="0 0 1111.2 307.26" style="enable-background:new 0 0 1111.2 307.26" xml:space="preserve"><style>.st0{fill:#40474f}.st1{fill:#ed5338}</style><path class="st0" d="M220.88 195.35c0 8.58-1.65 15.15-4.95 19.71-3.3 4.57-8.36 6.85-15.18 6.85s-11.86-2.28-15.09-6.85c-3.25-4.56-4.87-11.14-4.87-19.71V175.7c0-8.58 1.65-15.15 4.95-19.72 3.3-4.56 8.3-6.85 15.01-6.85 6.82 0 11.88 2.28 15.18 6.85 3.3 4.57 4.95 11.14 4.95 19.72v19.65zm-9.9-20.96c0-1.98-.17-3.93-.49-5.86-.33-1.92-.91-3.66-1.74-5.2-.82-1.54-1.87-2.78-3.13-3.71-1.27-.93-2.89-1.4-4.87-1.4s-3.61.47-4.87 1.4c-1.27.94-2.29 2.17-3.06 3.71s-1.32 3.27-1.65 5.2c-.33 1.93-.5 3.88-.5 5.86v22.12c0 1.98.17 3.93.5 5.86.33 1.93.88 3.66 1.65 5.2.77 1.54 1.79 2.8 3.06 3.79 1.26.99 2.89 1.49 4.87 1.49s3.6-.47 4.87-1.4c1.26-.93 2.31-2.2 3.13-3.79.82-1.59 1.4-3.35 1.74-5.28.33-1.92.49-3.88.49-5.86v-22.13z"/><path class="st1" d="M740.55 174.61v14.76c0 3.56-.7 6.27-2.09 8.14-1.39 1.87-3.5 2.81-6.33 2.81-2.78 0-4.87-.93-6.26-2.81-1.39-1.87-2.09-4.58-2.09-8.14v-14.76h4.11v15.31c0 .78.07 1.55.21 2.33.14.78.38 1.48.72 2.12.34.64.79 1.16 1.33 1.57.55.41 1.21.62 1.98.62.82 0 1.51-.19 2.05-.58.55-.39.99-.9 1.33-1.54.34-.64.58-1.36.72-2.16s.21-1.58.21-2.36v-15.31h4.11zM717.21 199.2c0 3.56-.7 6.29-2.09 8.18-1.39 1.89-3.5 2.84-6.33 2.84h-8.49v-45.51h8.49c2.83 0 4.94.95 6.33 2.84 1.39 1.89 2.09 4.62 2.09 8.18v23.47zm-4.11-24.16c0-.82-.08-1.62-.24-2.4a7.39 7.39 0 0 0-.75-2.09c-.34-.62-.79-1.11-1.33-1.47-.55-.37-1.23-.55-2.05-.55h-4.31v37.91h4.31c.77 0 1.45-.19 2.02-.58.57-.39 1.03-.89 1.37-1.5.34-.62.59-1.32.75-2.12.16-.8.24-1.63.24-2.5v-24.7zM795.79 169.64c0 8.5-1.64 14.96-4.92 19.37-3.29 4.41-8.26 6.62-14.93 6.62h-9.36v44.55h-9.69V132.84h19.04c6.67 0 11.65 2.23 14.93 6.7 3.28 4.47 4.92 10.89 4.92 19.29v10.81zm-9.69-12.11c0-2.04-.19-4.01-.56-5.89-.38-1.88-1-3.55-1.86-5-.86-1.45-1.94-2.61-3.23-3.47-1.29-.86-2.9-1.29-4.84-1.29h-9.04v44.87h9.04c3.87 0 6.59-1.61 8.15-4.84 1.56-3.23 2.34-6.94 2.34-11.13v-13.25zM896.82 162.7c0 5.92-.97 10.92-2.9 15.01-1.94 4.09-4.63 7.05-8.07 8.88l14.85 53.58h-10.33l-12.75-50.84h-10.65v50.84h-9.69V132.84h19.69c6.67 0 11.64 2.23 14.93 6.7 3.28 4.47 4.92 10.89 4.92 19.29v3.87zm-9.68-5.17c0-2.04-.19-4.01-.57-5.89-.38-1.88-1-3.55-1.86-5-.86-1.45-1.96-2.61-3.31-3.47-1.35-.86-2.99-1.29-4.92-1.29h-9.52v38.57h9.36c3.98 0 6.78-1.53 8.39-4.6 1.61-3.06 2.42-6.86 2.42-11.38v-6.94zM941.04 160.12v-4.2c0-1.94-.16-3.84-.48-5.73-.32-1.88-.89-3.58-1.7-5.08-.81-1.51-1.86-2.72-3.15-3.63-1.29-.91-2.85-1.37-4.68-1.37-1.83 0-3.39.48-4.68 1.45-1.29.97-2.34 2.21-3.15 3.71s-1.37 3.2-1.69 5.08c-.32 1.88-.49 3.74-.49 5.57v61.17c0 1.83.16 3.69.49 5.57.32 1.88.89 3.58 1.69 5.08.81 1.51 1.86 2.74 3.15 3.71 1.29.97 2.85 1.45 4.68 1.45 1.83 0 3.39-.46 4.68-1.37 1.29-.91 2.34-2.12 3.15-3.63.81-1.51 1.37-3.2 1.7-5.08.32-1.88.48-3.79.48-5.73v-4.2h9.68v1.45c0 18.29-6.56 27.44-19.69 27.44-6.67 0-11.62-2.23-14.85-6.7-3.23-4.46-4.84-10.89-4.84-19.29V157.2c0-8.39 1.61-14.82 4.84-19.29 3.23-4.46 8.18-6.7 14.85-6.7 13.13 0 19.69 8.98 19.69 26.95v1.94h-9.68zM995.43 217.55v-28.84h-21.79v28.84h-9.69v-62.09h9.69v24.37h21.79v-24.37h9.68v62.09h-9.68zM1056.44 164.5h-24.53v15.01h20.5v8.88h-20.5v20.29h24.53v8.88h-34.22v-62.09h34.22v9.03zM845.01 164.5h-24.53v15.01h20.5v8.88h-20.5v20.29h24.53v8.88h-34.22v-62.09h34.22v9.03z"/><path class="st0" d="M58.89 167.75v42h11.02v3.79H54.76v-45.79h4.13zM87.57 181.11H77.11v6.12h8.75v3.79h-8.75v9.24h10.47v3.79h-14.6v-26.79h14.6v3.85zM92.97 177.11c0-1.19.16-2.39.48-3.58.32-1.19.8-2.27 1.45-3.24.64-.96 1.48-1.74 2.51-2.34 1.03-.6 2.28-.89 3.75-.89 2.62 0 4.64.86 6.06 2.58 1.42 1.72 2.14 4.46 2.14 8.23v1.45h-4.13v-1.72c0-.83-.06-1.64-.17-2.44-.12-.8-.34-1.53-.66-2.17-.32-.64-.73-1.16-1.24-1.55-.5-.39-1.17-.59-2-.59-1.28 0-2.27.59-2.96 1.76s-1.03 2.58-1.03 4.23v2.2c0 1.56.33 2.95 1 4.17.66 1.22 1.83 2.49 3.48 3.82 1.01.83 1.98 1.7 2.92 2.62.94.92 1.77 1.91 2.48 2.96.71 1.06 1.27 2.21 1.69 3.48.41 1.26.62 2.67.62 4.23v3.86c0 1.24-.16 2.46-.48 3.65-.32 1.19-.8 2.26-1.44 3.2-.64.94-1.49 1.71-2.55 2.31-1.06.6-2.3.9-3.72.9-2.8 0-4.87-.95-6.2-2.86-1.33-1.9-2-4.58-2-8.02v-1.38h4.2v1.72c0 .83.06 1.64.17 2.44.11.8.32 1.53.62 2.17.3.64.7 1.16 1.21 1.55.5.39 1.17.59 1.99.59 1.33 0 2.34-.59 3.03-1.76s1.03-2.58 1.03-4.23v-3.24c0-2.16-.49-4.05-1.48-5.68s-2.35-3.18-4.1-4.65c-1.01-.83-1.93-1.63-2.75-2.41a14.18 14.18 0 0 1-2.1-2.48c-.58-.87-1.02-1.82-1.34-2.86-.32-1.03-.48-2.19-.48-3.48v-2.55zM166.13 168.69c0 8.69-1.68 15.29-5.03 19.79-3.36 4.51-8.44 6.76-15.26 6.76h-9.56v45.53h-9.9V131.08h19.46c6.82 0 11.9 2.28 15.26 6.85 3.35 4.56 5.03 11.13 5.03 19.71v11.05zm-9.9-12.37c0-2.09-.19-4.09-.58-6.02-.39-1.92-1.02-3.63-1.9-5.11s-1.98-2.66-3.3-3.55c-1.32-.88-2.97-1.32-4.95-1.32h-9.23v45.86h9.23c3.96 0 6.74-1.65 8.33-4.95 1.59-3.3 2.39-7.09 2.39-11.38v-13.53zM276.55 214.22c0 8.58-1.68 15.15-5.03 19.71-3.35 4.56-8.44 6.85-15.25 6.85h-20.45v-109.7h20.45c6.82 0 11.9 2.28 15.25 6.85 3.35 4.56 5.03 11.13 5.03 19.71v56.58zm-9.89-58.23c0-1.98-.2-3.9-.58-5.77-.39-1.87-.99-3.55-1.81-5.03-.83-1.48-1.9-2.66-3.22-3.55-1.32-.88-2.97-1.32-4.95-1.32h-10.39v91.39h10.39c1.87 0 3.49-.47 4.87-1.4a10.48 10.48 0 0 0 3.3-3.63c.82-1.49 1.42-3.19 1.81-5.11.38-1.92.58-3.93.58-6.02v-59.56zM321.74 178.54v-4.29c0-1.98-.17-3.93-.49-5.85-.33-1.92-.91-3.66-1.73-5.2s-1.9-2.78-3.22-3.71c-1.32-.93-2.91-1.4-4.79-1.4s-3.46.49-4.78 1.48c-1.32.99-2.39 2.25-3.22 3.79-.82 1.54-1.4 3.27-1.73 5.19-.33 1.93-.5 3.82-.5 5.69v22.24c0 1.87.17 3.77.5 5.69.33 1.93.91 3.66 1.73 5.2.83 1.54 1.9 2.8 3.22 3.79 1.32.99 2.91 1.49 4.78 1.49s3.47-.47 4.79-1.4c1.32-.93 2.39-2.17 3.22-3.71.82-1.54 1.4-3.27 1.73-5.2.33-1.92.49-3.88.49-5.86v-4.29h9.9v1.49c0 18.7-6.71 28.04-20.13 28.04-6.82 0-11.88-2.28-15.17-6.85-3.3-4.56-4.95-11.13-4.95-19.71v-19.6c0-8.58 1.65-15.15 4.95-19.71 3.3-4.56 8.36-6.84 15.17-6.84 13.42 0 20.13 9.18 20.13 27.55v1.98h-9.9zM339.72 235.66l18.8-109.69h11.88l22.36 126.53h-10.23l-8.01-43.88h-20.79l-4.29 27.05h-9.72zm15.18-35.96h18.48l-9.07-58.39h-.5l-8.91 58.39zM397.62 153.52c0-2.86.39-5.72 1.16-8.58.77-2.86 1.92-5.44 3.46-7.75 1.54-2.31 3.55-4.18 6.02-5.61 2.48-1.43 5.47-2.14 8.99-2.14 6.27 0 11.1 2.06 14.51 6.19 3.41 4.12 5.11 10.69 5.11 19.71v3.46h-9.9v-4.12c0-1.98-.14-3.93-.41-5.85-.28-1.92-.8-3.66-1.57-5.2s-1.76-2.78-2.97-3.71c-1.21-.93-2.8-1.4-4.78-1.4-3.08 0-5.44 1.4-7.09 4.21-1.65 2.8-2.48 6.19-2.48 10.14v5.28c0 3.74.79 7.07 2.39 9.98 1.59 2.91 4.37 5.97 8.33 9.15 2.41 1.98 4.75 4.07 7.01 6.27a45.68 45.68 0 0 1 5.94 7.09c1.7 2.53 3.05 5.31 4.04 8.33.99 3.02 1.48 4.91 1.48 8.65v9.24c0 2.97-.39 5.88-1.15 8.74-.77 2.86-1.93 5.42-3.47 7.67-1.54 2.25-3.57 4.1-6.1 5.53-2.53 1.43-5.5 2.14-8.91 2.14-6.71 0-11.66-2.28-14.85-6.85-3.19-4.56-4.78-10.97-4.78-19.22v-3.3h10.06v4.12c0 1.98.14 3.93.41 5.86.27 1.93.77 3.66 1.48 5.2.72 1.54 1.68 2.78 2.89 3.71 1.21.94 2.81 1.4 4.79 1.4 3.19 0 5.61-1.4 7.26-4.21 1.65-2.81 2.47-6.19 2.47-10.14v-7.75c0-5.17-1.18-8.21-3.54-12.12-2.37-3.9-5.64-7.61-9.82-11.13-2.42-1.98-4.62-3.9-6.6-5.77-1.98-1.87-3.66-3.85-5.03-5.94a26.731 26.731 0 0 1-3.22-6.85c-.77-2.47-1.16-5.25-1.16-8.33v-6.1zM461.29 221.92V149H443.8v-9.24h45.36V149h-17.98v72.92h-9.89zM496.1 153.52c0-2.86.39-5.72 1.16-8.58.77-2.86 1.92-5.44 3.46-7.75 1.54-2.31 3.55-4.18 6.02-5.61 2.48-1.43 5.47-2.14 8.99-2.14 6.27 0 11.1 2.06 14.51 6.19 3.41 4.12 5.11 10.69 5.11 19.71v3.46h-9.9v-4.12c0-1.98-.14-3.93-.41-5.85-.28-1.92-.8-3.66-1.57-5.2s-1.76-2.78-2.97-3.71c-1.21-.93-2.8-1.4-4.78-1.4-3.08 0-5.44 1.4-7.09 4.21-1.65 2.8-2.48 6.19-2.48 10.14v5.28c0 3.74.79 7.07 2.39 9.98 1.59 2.91 4.37 5.97 8.33 9.15 2.41 1.98 4.75 4.07 7.01 6.27a45.68 45.68 0 0 1 5.94 7.09c1.7 2.53 3.05 5.31 4.04 8.33.99 3.02 1.48 4.91 1.48 8.65v9.24c0 2.97-.39 5.88-1.15 8.74-.77 2.86-1.93 5.42-3.47 7.67-1.54 2.25-3.57 4.1-6.1 5.53-2.53 1.43-5.5 2.14-8.91 2.14-6.71 0-11.66-2.28-14.85-6.85-3.19-4.56-4.78-10.97-4.78-19.22v-3.3h10.06v4.12c0 1.98.14 3.93.41 5.86.27 1.93.77 3.66 1.48 5.2.72 1.54 1.68 2.78 2.89 3.71 1.21.94 2.81 1.4 4.79 1.4 3.19 0 5.61-1.4 7.26-4.21 1.65-2.81 2.47-6.19 2.47-10.14v-7.75c0-5.17-1.18-8.21-3.54-12.12-2.37-3.9-5.64-7.61-9.82-11.13-2.42-1.98-4.62-3.9-6.6-5.77-1.98-1.87-3.66-3.85-5.03-5.94a26.731 26.731 0 0 1-3.22-6.85c-.77-2.47-1.16-5.25-1.16-8.33v-6.1zM676.21 116.65h-5.9v-1.12c0-1.61-1.19-2.92-2.65-2.92s-2.65 1.31-2.65 2.92v17.35l-7.4-.02v-39.1c0-21.5-17.49-39-39-39s-39 17.49-39 39v39.13l-7.4-.02v-17.34c0-1.61-1.19-2.92-2.65-2.92s-2.65 1.31-2.65 2.92v1.12h-7.47c-.36 0-.66.3-.66.66v33.31c0 .36.3.66.66.66h7.84c.98 10.9 4.34 28.79 15.61 41.7 8.34 9.56 19.53 14.64 33.27 15.13v29.09h-13.52v4.9h31.95v-4.9h-13.52v-29.09c13.74-.5 24.93-5.58 33.27-15.13 11.28-12.93 14.64-30.84 15.61-41.7h6.27c.36 0 .66-.3.66-.66v-33.31a.668.668 0 0 0-.67-.66zm-91.69-22.89c0-18.8 15.3-34.1 34.1-34.1s34.1 15.3 34.1 34.1v61.76c0 18.8-15.3 34.1-34.1 34.1s-34.1-15.3-34.1-34.1V93.76zm65.99 95.17c-7.75 8.88-18.41 13.39-31.69 13.39-.07 0-.14.02-.21.02-.07-.01-.14-.02-.21-.02-13.26 0-23.92-4.5-31.67-13.36-15.35-17.56-14.53-46.76-14.52-47.16v-2.97l7.4.02v16.68c0 21.5 17.49 39 39 39s39-17.49 39-39v-16.7l7.4.02v3.07c.01.28.87 29.4-14.5 47.01z"/><path class="st1" d="M621.92 102.58a5.058 5.058 0 0 0-5.95-.05l-26.24 18.68c-.45.32-.72.85-.72 1.41v7.13l26.19-18.61c1.1-.79 2.39-1.19 3.68-1.19 1.31 0 2.62.41 3.73 1.23L648.03 130v-7.24c0-.55-.26-1.06-.7-1.39l-25.41-18.79z"/><path class="st1" d="M621.91 79a5.059 5.059 0 0 0-5.93-.03l-26.25 18.82c-.45.32-.72.85-.72 1.4v7.14l26.19-18.77c1.1-.79 2.39-1.19 3.68-1.19 1.31 0 2.62.41 3.73 1.23l25.42 18.6V99c0-.55-.26-1.07-.71-1.39L621.91 79zM621.96 126.87a5.133 5.133 0 0 0-6.03-.02l-26.17 18.87c-.47.34-.75.89-.75 1.47v7.11l26.19-18.9c1.1-.79 2.39-1.19 3.68-1.19 1.31 0 2.62.41 3.73 1.23l25.42 18.62v-7.18c0-.58-.27-1.12-.74-1.46l-25.33-18.55z"/></svg>